<?xml version="1.0" encoding="iso-8859-1"?>
<!-- Generator: Adobe Illustrator 19.0.0, SVG Export Plug-In . SVG Version: 6.00 Build 0)  -->
<svg version="1.1" id="Capa_1" xmlns="http://www.w3.org/2000/svg" xmlns:xlink="http://www.w3.org/1999/xlink" x="0px" y="0px"
	 viewBox="0 0 512 512" style="enable-background:new 0 0 512 512;" xml:space="preserve">
<g>
	<g>
		<path d="M457.453,203.333c-30.075,0-54.543,24.468-54.543,54.543v71.502c0,6.208-5.05,11.258-11.258,11.258h-24.648V95.5
			c0-52.659-42.841-95.5-95.5-95.5s-95.5,42.841-95.5,95.5v143.167h-33.127c-9.304,0-16.873-7.569-16.873-16.873V135
			c0-34.738-28.262-63-63-63c-34.738,0-63,28.262-63,63v118.667c0,60.654,49.346,110,110,110h66V512h191v-63.1h51.729
			c51.426,0,93.264-41.837,93.264-93.263v-97.76C511.997,227.802,487.528,203.333,457.453,203.333z M176.003,333.666h-66v0.001
			c-44.112,0-80-35.888-80-80V135c0-18.196,14.804-33,33-33s33,14.804,33,33v86.793c0,25.846,21.027,46.873,46.873,46.873h33.127
			V333.666z M337.003,482h-131V95.5c0-36.117,29.383-65.5,65.5-65.5s65.5,29.383,65.5,65.5V482z M481.997,355.637
			c0,34.883-28.38,63.263-63.264,63.263h-51.729v-48.263h24.648c22.75,0,41.258-18.508,41.258-41.258v-71.502
			c0-13.533,11.01-24.543,24.543-24.543c13.533,0,24.544,11.01,24.544,24.543V355.637z"/>
	</g>
</g>
<g>
</g>
<g>
</g>
<g>
</g>
<g>
</g>
<g>
</g>
<g>
</g>
<g>
</g>
<g>
</g>
<g>
</g>
<g>
</g>
<g>
</g>
<g>
</g>
<g>
</g>
<g>
</g>
<g>
</g>
</svg>
