<svg height="464pt" viewBox="0 -132 464 464" width="464pt" xmlns="http://www.w3.org/2000/svg"><path d="m233.550781 127.960938c-.527343.007812-1.023437.039062-1.550781.039062-54.527344 0-87.566406-10.910156-104-18.496094v22.128906c10.671875 3.175782 37.886719 9.910157 80.441406 11.832032 8.253906-5.34375 16.621094-10.527344 25.109375-15.503906zm0 0"/><path d="m265.585938 110.398438c2.300781-1.183594 4.582031-2.421876 6.902343-3.582032l27.511719-13.761718c11.511719-5.75 23.601562-10.269532 36-13.664063v-23.390625c0-30.871094-25.128906-56-56-56h-74.945312c32.328124 25.871094 72.128906 40 114.136718 40h.808594v16h-.808594c-51.992187 0-100.910156-19.832031-138.230468-55.847656-29.457032 1.589844-52.960938 26-52.960938 55.847656v35.558594c9.671875 5.472656 41.808594 20.441406 104 20.441406 11.664062 0 22.9375-.558594 33.585938-1.601562zm0 0"/><path d="m452.078125 98.625-12.492187-3.5625c-16.386719-4.6875-33.339844-7.0625-50.402344-7.0625-28.320313 0-56.6875 6.695312-82.03125 19.367188l-27.511719 13.761718c-38.914063 19.457032-75.847656 42.792969-110.152344 69.558594.703125-.183594 1.40625-.375 2.113281-.558594l66.582032-17.921875c69.152344-18.621093 140.28125-32.574219 211.417968-41.472656 8.207032-1.023437 14.398438-8.03125 14.398438-16.300781 0-7.296875-4.894531-13.792969-11.921875-15.808594zm0 0"/><path d="m117.144531 144.910156-5.144531-1.964844v-23.785156l-61.960938-6.878906c-1.65625-.183594-3.320312-.28125-4.976562-.28125l-7.429688-.015625c-.015624 0-.023437 0-.039062 0-10.027344 0-19.464844 3.902344-26.570312 11-7.113282 7.105469-11.023438 16.550781-11.023438 26.601563v1.949218c0 20.058594 13.519531 37.066406 32.878906 41.351563l1.105469.25c20.421875 4.519531 41.40625 6.832031 62.34375 6.855469h.351563c13.273437 0 26.441406-.894532 39.441406-2.6875 16.222656-13.890626 33.117187-26.96875 50.582031-39.25-45.0625-3.957032-68.445313-12.710938-69.558594-13.144532zm0 0"/></svg>