<svg xmlns="http://www.w3.org/2000/svg" enable-background="new 0 0 24 24" width="24" height="24"><rect id="backgroundrect" width="100%" height="100%" x="0" y="0" fill="none" stroke="none"/><g class="currentLayer" style=""><title>Layer 1</title><path d="M12.081702412993668,11.10925998474364 c-0.49194668354067567,0 -0.8908105532062438,0.3988638696655683 -0.8908105532062438,0.8908105532062438 s0.3988638696655683,0.8908105532062438 0.8908105532062438,0.8908105532062438 s0.8908105532062438,-0.3988638696655683 0.8908105532062438,-0.8908105532062438 S12.573649096534343,11.10925998474364 12.081702412993668,11.10925998474364 zM8.518460200168693,11.10925998474364 c-0.49194668354067567,0 -0.8908105532062438,0.3988638696655683 -0.8908105532062438,0.8908105532062438 S8.026513516628018,12.890881091156126 8.518460200168693,12.890881091156126 S9.409270753374937,12.49201722149056 9.409270753374937,12.000070537949883 S9.010406883709368,11.10925998474364 8.518460200168693,11.10925998474364 zM15.644944625818642,11.10925998474364 c-0.49194668354067567,0 -0.8908105532062438,0.3988638696655683 -0.8908105532062438,0.8908105532062438 s0.3988638696655683,0.8908105532062438 0.8908105532062438,0.8908105532062438 s0.8908105532062438,-0.3988638696655683 0.8908105532062438,-0.8908105532062438 S16.136891309359317,11.10925998474364 15.644944625818642,11.10925998474364 zM20.88918578575762,4.030621825329583 c-4.401204420376963,-4.864443249156312 -11.91248883622794,-5.240036534127845 -16.776932085384253,-0.8389045663425416 c-4.864443249156312,4.401204420376963 -5.240036534127845,11.91248883622794 -0.8389045663425416,16.776932085384253 l-2.895134297920291,2.895134297920291 c-0.11135131915078046,0.11135131915078046 -0.17391389450037845,0.2623570106901668 -0.17391389450037845,0.4198147836790557 C0.2042283702437542,23.611562802481263 0.47013769587062615,23.87747212810814 0.79810207238125,23.877544580699794 H12.081702412993668 c2.944937971878427,-0.00007245259166077459 5.784831563322774,-1.094229637300438 7.96857880642141,-3.069990669985962 C24.914796921163052,16.40634949033687 25.29031763476818,8.895065074485894 20.88918578575762,4.030621825329583 zM12.081702412993668,22.689797176424804 H2.231677794468517 l2.290893936438283,-2.2908213650718823 c0.00007245259166077459,-0.00007245259166077459 0.00014502395806197655,-0.00014502395806197655 0.00014502395806197655,-0.00021747654972275113 c0.23183689093939733,-0.23190946230579854 0.2317644383477367,-0.6077926764187135 -0.00014502395806197655,-0.8395569959917097 C2.518393010150814,17.555022499280764 1.3922657036601291,14.836846886331712 1.3919757745187455,12.002462898771572 c-0.0006524296491682532,-5.903142250839422 4.784192026813808,-10.689074208825753 10.687334277653232,-10.689726638474921 c5.9030697982477625,-0.0006524296491682532 10.689074208825753,4.784192026813808 10.689726638474921,10.687334277653232 C22.769689239070807,17.903140336197648 17.98484466383309,22.68914474677564 12.081702412993668,22.689797176424804 z" id="svg_1" class="selected" fill="#ffffff" fill-opacity="1"/></g></svg>