<svg xmlns="http://www.w3.org/2000/svg" width="24" height="24" style=""><rect id="backgroundrect" width="100%" height="100%" x="0" y="0" fill="none" stroke="none"/><g class="currentLayer" style=""><title>Layer 1</title><path fill="none" stroke="#ffffff" stroke-linecap="round" stroke-linejoin="round" stroke-width="1.5" d="M9.15721519,20.7714023 L9.15721519,17.70467 C9.157197440000001,16.9246392 9.793117429999999,16.290827200000003 10.58101266,16.285592100000002 L13.4670886,16.285592100000002 C14.2587434,16.285592100000002 14.9005063,16.9209349 14.9005063,17.70467 L14.9005063,17.70467 L14.9005063,20.7809263 C14.9003226,21.4432001 15.4342557,21.984478 16.103037999999998,22 L18.0270886,22 C19.9451246,22 21.5,20.4606794 21.5,18.5618312 L21.5,18.5618312 L21.5,9.8378351 C21.4897577,9.09082692 21.1354747,8.38934919 20.5379747,7.93303245 L13.9577215,2.6853011540000002 C12.8049347,1.771566282 11.16620456,1.771566282 10.01341772,2.6853011540000002 L3.462025316,7.94255646 C2.862258604,8.397022490000001 2.50738668938,9.09966612 2.5,9.84735911 L2.5,18.5618312 C2.5,20.4606794 4.05487539,22 5.97291139,22 L7.89696203,22 C8.582354389999999,22 9.13797468,21.4499381 9.13797468,20.7714023 L9.13797468,20.7714023 " id="svg_1" class="selected" stroke-opacity="1"/></g></svg>