<svg xmlns="http://www.w3.org/2000/svg" width="108" height="108"><rect id="backgroundrect" width="100%" height="100%" x="0" y="0" fill="none" stroke="none"/><g class="currentLayer" style=""><title>Layer 1</title><path d="M84.4 37.06s0 0 0 0v0S84.39 37 84.4 37.06zM19.65 37.49a1.06 1.06 0 0 1-.15-.15 1.1 1.1 0 0 0 .14.11zM84.4 37.06s0 0 0 0v0S84.39 37 84.4 37.06z" id="svg_1"/><path d="M97.9842955052998,19.01227288390474 a13.268870802682907,10.765118169086636 0 0 0 -6.342672467821656,-1.5025881956851337 a15.361952717064051,12.463248664210242 0 0 0 -1.9028017403464972,-6.175019982267667 A15.920107894232357,12.916083462909869 0 0 0 72.6770323586914,5.025852624068464 a14.499349261440303,11.763413066219906 0 0 0 -5.074137974257324,1.8627976946507467 A15.222413922771974,12.350039964535334 0 0 0 39.961527769667306,8.741156313399514 a16.65585790049967,13.513002061195749 0 0 0 -12.444323381866088,3.7461787892423866 a15.222413922771974,12.350039964535334 0 0 0 -3.615323306658344,4.641556686671196 a13.953879429207642,11.320869967490726 0 0 0 -13.953879429207642,1.3996711959806718 c-5.251732803356331,3.427136090158556 -4.871172455287032,8.964070674258565 -4.744319005930599,10.034407471184961 a15.501491511356125,12.57645736388515 0 0 0 5.6957198761038486,8.408318875854473 a1.3953879429207654,1.1320869967490723 0 0 0 0.1775948290990067,0.11320869967490742 v0 l2.232620708673223,17.2077223505859 l5.962112119752358,45.97302376798279 a10.148275948514648,8.23335997635689 0 0 0 10.148275948514648,7.3688571788394155 H79.95842035175069 a10.148275948514648,8.23335997635689 0 0 0 10.148275948514648,-7.3688571788394155 l1.978913809960357,-15.231715956260247 l-5.074137974257324,-0.2161256993793687 L85.0071876361367,99.87415955169983 a5.074137974257324,4.116679988178446 0 0 1 -5.074137974257324,3.6844285894197073 h-8.118620758811725 l1.8647457055395686,-48.370989861096724 V55.146431480141025 l0.6088965569108822,-15.653675655048536 a32.499853725118165,26.36733532428294 0 0 0 6.431469882371159,-2.0583399940892226 c2.537068987128662,-1.0291699970446113 5.074137974257324,-1.9657146943552077 7.230646613316688,-1.9657146943552077 A13.370353562168049,10.847451768850199 0 0 1 93.21460580949794,36.62137153333803 v0 s0,0 0,0 s0,0 0,0 L90.9692997558891,53.90113578371705 L88.5463988731812,72.55998783013587 l5.074137974257324,0.2264173993498158 l2.397530192836586,-18.453018047009873 L98.31411447362657,36.62137153333803 a12.76145700525717,10.353450170268792 0 0 0 6.114336258980077,-8.41861057582492 C104.65678694144823,22.429117274092842 98.66930413182457,19.341607282959007 97.9842955052998,19.01227288390474 zM29.39463543827644,103.51742134123776 a5.074137974257324,4.116679988178446 0 0 1 -5.074137974257324,-3.6844285894197073 l-5.962112119752358,-45.97302376798279 L16.138449980529174,36.62137153333803 a13.383038907103696,10.857743468820647 0 0 1 5.239047458420688,-1.204128896542195 c2.194564673866293,0 4.6428362464454525,0.9571280972514922 7.230646613316688,1.9657146943552077 a32.499853725118165,26.36733532428294 0 0 0 6.431469882371159,2.0583399940892226 L35.64851049154859,53.427717585076536 v0.07204189979312287 c0,0.07204189979312287 0,0.13379209961579971 0,0.2058339994089224 l1.6110388068266999,41.92838567959746 v0.06175019982267706 c0,0.07204189979312287 0,0.13379209961579971 0,0.2058339994089224 l0.2917629335197968,7.657024778011907 zM68.6304073242212,55.08468128031836 V55.146431480141025 l-1.8647457055395686,48.370989861096724 H42.58739417134548 l-0.3044482784554399,-7.934900677213952 v-0.06175019982267706 L40.72264846580592,53.43800928504698 v-0.06175019982267706 l-0.5327844872970197,-13.729127760575112 a28.034612307771724,22.74465693468591 0 0 0 7.31944402786619,-2.212715493645914 c2.537068987128662,-1.0291699970446113 5.074137974257324,-1.9657146943552077 7.230646613316688,-1.9657146943552077 s4.6428362464454525,0.9571280972514922 7.230646613316688,1.9657146943552077 a28.034612307771724,22.74465693468591 0 0 0 7.31944402786619,2.212715493645914 zM95.7516747966266,33.09131844347502 a18.73625446994517,15.200840856348908 0 0 0 -7.77611644554935,-1.7392972950053944 c-3.348931063009835,0 -6.444155227306801,1.204128896542195 -9.42521128718298,2.3670909932026056 c-2.537068987128662,1.0291699970446113 -5.074137974257324,1.9657146943552077 -7.217961268381045,1.9657146943552077 s-4.6428362464454525,-0.9571280972514922 -7.230646613316688,-1.9657146943552077 c-2.981056059876179,-1.1629620966604104 -6.0762802241731455,-2.3670909932026056 -9.42521128718298,-2.3670909932026056 s-6.444155227306801,1.204128896542195 -9.42521128718298,2.3670909932026056 c-2.537068987128662,1.0291699970446113 -5.074137974257324,1.9657146943552077 -7.230646613316688,1.9657146943552077 s-4.6301509015098095,-0.9571280972514922 -7.217961268381045,-1.9657146943552077 c-2.9937414048118205,-1.1629620966604104 -6.0762802241731455,-2.3670909932026056 -9.42521128718298,-2.3670909932026056 a19.02801740346497,15.437549955669168 0 0 0 -8.067879379069147,1.8525059946803015 a10.148275948514648,8.23335997635689 0 0 1 -3.0444827845543943,-5.042932985518596 c-0.08879741454950364,-0.6998355979903389 -0.342504313262372,-4.322513987587366 2.866887955455388,-6.432312481528821 a9.082706973920613,7.3688571788394155 0 0 1 9.716974220702777,-0.4734181986405213 A19.76376740973228,16.034468553955044 0 0 0 22.963165555905274,24.55949916797519 A2.537068987128662,2.0583399940892226 0 0 0 25.500234543033937,26.329671562891917 l0.3805603480693007,0 A2.537068987128662,2.0583399940892226 0 0 0 28.0373035301626,23.931705469777974 c-0.10148275948514669,-0.5351683984631986 -0.8752888005593926,-5.331100584691086 3.0825388193613246,-8.521527575529381 s10.579577676326524,-3.4580111900698935 15.882051859425426,-0.7512940978425676 a2.537068987128662,2.0583399940892226 0 0 0 2.7146638162276693,-3.4785945900107853 a19.02801740346497,15.437549955669168 0 0 0 -4.5667241768315945,-1.7084221950940544 a10.516150951648305,8.531819275499826 0 0 1 7.611206961385987,-4.63126498670075 A10.934767334524535,8.87144537452455 0 0 1 64.34276073597377,10.892121607222748 a2.537068987128662,2.0583399940892226 0 0 0 4.262275898376152,0.6895438980198948 a10.22438801812851,8.295110176179568 0 0 1 5.2009914236137575,-2.552341592670635 a10.909396644653246,8.850861974583657 0 0 1 11.543663891435411,4.281347187705582 A11.061620783880967,8.97436237422901 0 0 1 86.38989023412182,19.32102388301812 a2.537068987128662,2.0583399940892226 0 0 0 2.981056059876179,2.4185494930548366 a8.714831970786955,7.070397879696479 0 0 1 6.01285349949493,0.802752597694798 c0.16490948416336518,0.08233359976356944 4.122737104084076,2.0583399940892226 3.983198309792,5.567809684011347 A7.611206961385987,6.175019982267667 0 0 1 95.7516747966266,33.09131844347502 z" id="svg_2" class="" stroke="#ffffff" stroke-opacity="1" fill="#ffffff" fill-opacity="1"/><rect width="5.1605730056762695" height="8.087073226040308" x="87.79713739534309" y="74.8877508071787" rx="2" ry="2" transform="rotate(3.0799999237060547 90.37743377685577,78.93131256103511) " id="svg_3" class="" stroke="#ffffff" stroke-opacity="1" fill="#ffffff" fill-opacity="1"/></g></svg>