<svg xmlns="http://www.w3.org/2000/svg" width="32" height="32"><rect id="backgroundrect" width="100%" height="100%" x="0" y="0" fill="none" stroke="none"/><g class="currentLayer" style=""><title>Layer 1</title><path d="M16.081634115482817,17.059367838203798 A9.306122599721531,8.474953395766534 0 1 0 6.775511515761288,8.584414442437264 A9.306122599721531,8.474953395766534 0 0 0 16.081634115482817,17.059367838203798 zM16.081634115482817,2.2281993956123642 a6.979591949791148,6.3562150468249 0 1 1 -6.979591949791148,6.3562150468249 A6.979591949791148,6.3562150468249 0 0 1 16.081634115482817,2.2281993956123642 zM20.73469541534358,19.17810618714543 H11.42857281562205 a8.14285727475634,7.415584221295717 0 0 0 -8.14285727475634,7.415584221295717 v2.1187383489416334 a3.489795974895574,3.17810752341245 0 0 0 3.489795974895574,3.17810752341245 H25.387756715204347 a3.489795974895574,3.17810752341245 0 0 0 3.489795974895574,-3.17810752341245 V26.593690408441148 A8.14285727475634,7.415584221295717 0 0 0 20.73469541534358,19.17810618714543 zm5.8163266248259555,9.53432257023735 a1.1632653249651914,1.0593691744708167 0 0 1 -1.1632653249651914,1.0593691744708167 H6.775511515761288 a1.1632653249651914,1.0593691744708167 0 0 1 -1.1632653249651914,-1.0593691744708167 V26.593690408441148 a5.8163266248259555,5.296845872354083 0 0 1 5.8163266248259555,-5.296845872354083 h9.306122599721531 a5.8163266248259555,5.296845872354083 0 0 1 5.8163266248259555,5.296845872354083 z" id="svg_1" class="" fill="#ffffff" fill-opacity="1"/></g></svg>