<svg id="Layer_1" height="512" viewBox="0 0 128 128" width="512" xmlns="http://www.w3.org/2000/svg" data-name="Layer 1"><path d="m100.833 40.906a18.664 18.664 0 0 0 -.984-5.97 194.317 194.317 0 0 0 -35.849-3.13 194.317 194.317 0 0 0 -35.849 3.13 18.664 18.664 0 0 0 -.984 5.97c0 14.26 16.484 25.83 36.833 25.83s36.833-11.57 36.833-25.83z" fill="#3b70a8"/><ellipse cx="64" cy="42.722" fill="#4482c3" rx="57.5" ry="16.722"/><path d="m89.83 32.33a26.016 26.016 0 0 1 -.69 5.97 96.937 96.937 0 0 1 -25.14 3.13 96.937 96.937 0 0 1 -25.14-3.13 25.834 25.834 0 1 1 50.97-5.97z" fill="#3b70a8"/><path d="m82.193 54.325a1.75 1.75 0 0 1 -.173-3.492 107.722 107.722 0 0 0 22.673-4.441 1.75 1.75 0 0 1 1.094 3.325 111.309 111.309 0 0 1 -23.417 4.6 1.763 1.763 0 0 1 -.177.008z" fill="#3b70a8"/><g fill="#e8e8e8"><path d="m24.194 123.25a1.772 1.772 0 0 1 -.359-.037 1.75 1.75 0 0 1 -1.356-2.07l10.808-51.82a1.75 1.75 0 1 1 3.426.715l-10.807 51.819a1.752 1.752 0 0 1 -1.712 1.393z"/><path d="m103.806 123.25a1.752 1.752 0 0 1 -1.712-1.393l-10.807-51.819a1.75 1.75 0 1 1 3.426-.715l10.808 51.82a1.75 1.75 0 0 1 -1.356 2.07 1.772 1.772 0 0 1 -.359.037z"/><path d="m79.832 123.25a1.75 1.75 0 0 1 -1.745-1.637l-3.167-48.833a1.75 1.75 0 0 1 3.493-.227l3.167 48.834a1.749 1.749 0 0 1 -1.633 1.859c-.039.003-.077.004-.115.004z"/><path d="m48.168 123.25c-.038 0-.076 0-.115 0a1.749 1.749 0 0 1 -1.633-1.859l3.167-48.834a1.75 1.75 0 0 1 3.493.227l-3.167 48.833a1.75 1.75 0 0 1 -1.745 1.633z"/></g></svg>