<svg id="Capa_1" enable-background="new 0 0 506.412 506.412" height="512" viewBox="0 0 506.412 506.412" width="512" xmlns="http://www.w3.org/2000/svg"><g><circle cx="223.24" cy="268.219" r="10"/><path d="m468.74 124.154v-89.626c0-18.367-14.942-33.309-33.309-33.309s-33.31 14.942-33.31 33.309v64.798l-79.957.711c6.511-10.121 10.306-22.147 10.306-35.051 0-35.833-29.152-64.986-64.985-64.986-25.841 0-48.203 15.164-58.668 37.058-15.991-4.563-33.384-1.892-47.432 7.724l-1.784 1.223c-.542-.894-1.109-1.774-1.701-2.639-10.541-15.383-27.98-24.567-46.65-24.567-11.405 0-22.431 3.418-31.894 9.892l-17.138 11.748c-25.695 17.603-32.28 52.835-14.681 78.537 3.821 5.583 8.568 10.392 14.109 14.292 3.169 2.229 6.54 4.115 10.081 5.641.53 10.347 3.908 20.446 9.815 29.075 4.586 6.689 10.42 12.182 17.126 16.278l-46.262 31.096c-14.966 10.086-19.199 30.952-9.257 46.056 10.118 15.372 31.724 19.641 46.907 9.169l107.521-74.152 6.562 29.662c1.193 5.393 6.53 8.797 11.924 7.604 5.392-1.193 8.797-6.532 7.604-11.924l-9.771-44.169c-1.504-6.795-9.689-10.04-15.441-6.072l-119.754 82.586c-5.556 3.832-13.402 2.8-17.798-2.31-5.159-5.997-3.887-15.44 2.669-19.859l167.933-112.879c10.309 6.881 22.682 10.902 35.979 10.902 12.539 0 24.254-3.58 34.194-9.756.02 0 .039.003.059.003h.091l110.381-.981c5.488-.049 9.911-4.511 9.911-10v-74.71c0-7.339 5.971-13.309 13.31-13.309s13.309 5.97 13.309 13.309v89.626c0 10.775-8.763 19.744-19.535 19.995l-110.697 2.573c-6.151.142-10.826 6.033-9.552 12.063l24.051 113.891c.771 3.651 3.512 6.57 7.108 7.569l47.739 13.261c6.913 1.92 12.293 7.435 14.043 14.392l38.368 152.535c2.221 8.83-2.879 18.152-11.505 21.05-9.84 3.306-20.666-2.834-22.883-12.962l-25.608-116.944c-3.127-14.279-13.782-25.707-27.809-29.824l-53.396-15.673c-7.077-2.077-14.066 4.315-12.624 11.551l10.155 50.922c1.719 8.623-2.31 17.248-10.025 21.462l-173.32 94.688c-7.831 4.096-17.732.483-21.118-7.651-2.92-7.014-.112-15.28 6.483-19.062l131.806-75.581c15.413-8.838 23.077-26.406 19.073-43.715l-6.762-29.228c-1.227-5.304-6.693-8.716-11.997-7.489-5.304 1.228-8.716 6.692-7.489 11.997l6.762 29.228c2.002 8.655-1.83 17.438-9.537 21.858l-131.804 75.579c-11.541 6.618-18.525 19.483-17.662 32.777.909 14.007 10.409 26.528 23.7 31.094 9.136 3.138 19.548 2.391 28.066-2.219l173.389-94.726c15.431-8.43 23.489-25.681 20.05-42.925l-6.923-34.717 37.541 11.02c7.013 2.059 12.341 7.772 13.904 14.912l25.608 116.944c3.596 16.417 18.128 28.689 34.905 29.553 15.507.799 30.211-8.356 36.413-22.561 3.318-7.599 4.025-16.197 2.003-24.238l-38.368-152.535c-3.5-13.914-14.262-24.943-28.086-28.783l-41.885-11.635-20.308-96.164 98.657-2.292c21.543-.501 39.07-18.44 39.07-39.99zm-370.699 32.526c-4.787-6.993-7.003-15.48-6.242-23.9.437-4.825-2.648-9.269-7.321-10.546-4.08-1.116-7.89-2.907-11.323-5.323-3.58-2.519-6.646-5.624-9.114-9.232-11.371-16.606-7.118-39.368 9.483-50.742l17.132-11.745c6.115-4.183 13.236-6.394 20.594-6.394 12.07 0 23.341 5.934 30.148 15.868 1.975 2.886 3.528 6.038 4.617 9.369.979 2.994 3.311 5.353 6.294 6.364 2.982 1.012 6.269.559 8.867-1.223l11.513-7.895c9.007-6.164 20.147-7.913 30.417-5.056-.388 2.868-.607 5.789-.607 8.762 0 15.135 5.215 29.066 13.924 40.125l-98.254 66.043c-8.193-2.311-15.249-7.359-20.128-14.475zm124.457-91.694c0-24.806 20.181-44.986 44.986-44.986s44.986 20.181 44.986 44.986-20.181 44.986-44.986 44.986-44.986-20.18-44.986-44.986z"/></g></svg>