<?xml version="1.0" encoding="iso-8859-1"?>
<!-- Generator: Adobe Illustrator 19.0.0, SVG Export Plug-In . SVG Version: 6.00 Build 0)  -->
<svg version="1.1" id="Layer_1" xmlns="http://www.w3.org/2000/svg" xmlns:xlink="http://www.w3.org/1999/xlink" x="0px" y="0px"
	 viewBox="0 0 512.001 512.001" style="enable-background:new 0 0 512.001 512.001;" xml:space="preserve">
<g>
	<g>
		<path d="M400.486,312.442H111.514c-37.207,0-67.478,30.27-67.478,67.477c0,37.207,30.271,67.478,67.478,67.478h288.973
			c37.207,0,67.478-30.27,67.478-67.478C467.964,342.714,437.693,312.442,400.486,312.442z M400.486,417.397H111.514
			c-20.665,0-37.478-16.813-37.478-37.478c0-20.665,16.813-37.477,37.478-37.477h288.973c20.665,0,37.478,16.813,37.478,37.477
			C437.964,400.585,421.151,417.397,400.486,417.397z"/>
	</g>
</g>
<g>
	<g>
		<circle cx="125.67" cy="379.92" r="18.247"/>
	</g>
</g>
<g>
	<g>
		<circle cx="177.8" cy="379.92" r="18.247"/>
	</g>
</g>
<g>
	<g>
		<circle cx="229.93" cy="379.92" r="18.247"/>
	</g>
</g>
<g>
	<g>
		<circle cx="282.07" cy="379.92" r="18.247"/>
	</g>
</g>
<g>
	<g>
		<circle cx="334.2" cy="379.92" r="18.247"/>
	</g>
</g>
<g>
	<g>
		<circle cx="386.33" cy="379.92" r="18.247"/>
	</g>
</g>
<g>
	<g>
		<path d="M444.522,262.738h-3.9v-50.419h-28.863v-11.285c0-33.636-27.364-61-61-61h-19.806v-27.084h-30v27.085H282.45
			c-14.85,0-28.473,5.34-39.063,14.193L52.039,64.603L39.314,91.771l186.265,87.244c-2.656,6.835-4.129,14.257-4.129,22.02v11.285
			h-78.599l-41.028,50.419H67.478C30.271,262.738,0,293.009,0,330.216h30c0-20.665,16.813-37.477,37.478-37.477h377.045
			c20.665,0,37.478,16.813,37.478,37.477h30C512,293.009,481.729,262.738,444.522,262.738z M251.45,201.034
			c0-17.094,13.906-31,31-31h68.309c17.094,0,31,13.906,31,31v11.285H251.45V201.034z M410.622,262.738h-270.12l16.615-20.419
			h64.333h189.172V262.738z"/>
	</g>
</g>
<g>
</g>
<g>
</g>
<g>
</g>
<g>
</g>
<g>
</g>
<g>
</g>
<g>
</g>
<g>
</g>
<g>
</g>
<g>
</g>
<g>
</g>
<g>
</g>
<g>
</g>
<g>
</g>
<g>
</g>
</svg>
