<svg id="Capa_1" enable-background="new 0 0 609.619 609.619" height="512" viewBox="0 0 609.619 609.619" width="512" xmlns="http://www.w3.org/2000/svg"><g><g id="Page-1_24_"><g id="_x30_25---Grenade" clip-rule="evenodd" fill-rule="evenodd"><path id="Path_177_" d="m543.345 402.871h-108.73c-.552 14.747-1.426 29.233-2.624 43.457h104.408c3.281-14.315 5.601-28.833 6.946-43.457z"/><path id="Path_176_" d="m272.717 511.644h-91.443c6.581 15.18 14.485 29.751 23.623 43.544h76.855c-3.428-13.433-6.422-28.053-9.035-43.544z"/><path id="Path_175_" d="m515.28 250.379h-333.853c-2.359 7.156-4.5 14.413-6.423 21.772h346.71c-1.93-7.359-4.075-14.616-6.434-21.772z"/><path id="Path_174_" d="m65.316 169.18v342.464c0 6.012 4.874 10.886 10.886 10.886s10.886-4.874 10.886-10.886v-335.65c-.002-10.887 4.085-21.377 11.452-29.392l101.448-110.678c8.25-9 19.893-14.133 32.103-14.152h18.289v-21.772h-28.881c-9.229-.002-18.029 3.901-24.221 10.745l-123.525 136.521c-5.432 6.006-8.438 13.816-8.437 21.914z"/><path id="Path_173_" d="m515.465 511.851c0-.087.054-.174 0-.239h-91.443c-2.613 15.513-5.606 30.133-9.003 43.544h76.714c9.181-13.702 17.123-28.194 23.732-43.305z"/><path id="Path_172_" d="m272.151 32.658h185.063c6.012 0 10.886-4.874 10.886-10.886v-10.886c0-6.012-4.874-10.886-10.886-10.886h-185.063z"/><path id="Path_171_" d="m401.913 511.644h-107.119c2.743 15.676 5.911 30.241 9.471 43.544h88.177c3.56-13.324 6.739-27.879 9.471-43.544z"/><path id="Path_170_" d="m178.02 468.1c2.177 7.395 4.579 14.653 7.207 21.772h326.255c2.649-7.141 5.051-14.399 7.207-21.772z"/><path id="Path_169_" d="m285.683 293.923c-1.089 14.293-1.764 28.859-2.177 43.61h129.653c-.392-14.754-1.118-29.291-2.177-43.61z"/><path id="Path_168_" d="m424.164 607.855c13.221-8.736 25.278-19.117 35.88-30.895h-223.381c10.616 11.78 22.688 22.162 35.924 30.895 1.808 1.163 3.914 1.776 6.064 1.764h139.45c2.149.012 4.255-.601 6.063-1.764z"/><path id="Path_167_" d="m263.867 293.923h-105.78c-2.785 14.406-4.683 28.97-5.683 43.61h109.339c.408-14.754 1.115-29.291 2.124-43.61z"/><path id="Path_166_" d="m293.009 228.476 110.7.065c-2.438-15.502-5.291-30.035-8.513-43.544h-93.653c-3.265 13.499-6.096 28.01-8.534 43.479z"/><path id="Path_165_" d="m176.779 228.4 94.208.065c2.341-15.328 5.04-29.882 8.121-43.414h-80.894c-8.382 13.805-15.554 28.309-21.435 43.349z"/><path id="Path_164_" d="m160.167 446.382h104.506c-1.19-14.239-2.065-28.754-2.624-43.544l-108.556-.054c1.264 14.664 3.493 29.228 6.674 43.598z"/><path id="Path_163_" d="m227.399 163.291h241.91c-13.402-17.107-29.595-31.829-47.899-43.544h-146.058c-18.323 11.71-34.535 26.432-47.953 43.544z"/><path id="Rectangle_20_" d="m283.037 54.43h130.633v43.544h-130.633z"/><path id="Path_162_" d="m410.154 446.328c1.219-14.152 2.101-28.728 2.667-43.544h-128.935c.566 14.79 1.455 29.305 2.667 43.544z"/><path id="Path_161_" d="m544.302 337.37c-1.058-14.608-2.93-29.145-5.606-43.544h-105.856c1.009 14.319 1.734 28.855 2.177 43.61h109.209c.031-.016.057-.038.076-.066z"/><path id="Path_160_" d="m417.6 185.063c3.081 13.553 5.791 28.14 8.132 43.544h94.208.065c-5.921-15.084-13.087-29.649-21.424-43.544z"/><path id="Path_159_" d="m533.416 364.683c0-1.818-.087-3.625-.109-5.443h-369.907c0 1.818-.109 3.625-.109 5.443 0 5.519.348 10.886.588 16.329h368.95c.239-5.443.587-10.886.587-16.329z"/></g></g></g></svg>