<?xml version="1.0" encoding="iso-8859-1"?>
<!-- Generator: Adobe Illustrator 18.0.0, SVG Export Plug-In . SVG Version: 6.00 Build 0)  -->
<!DOCTYPE svg PUBLIC "-//W3C//DTD SVG 1.1//EN" "http://www.w3.org/Graphics/SVG/1.1/DTD/svg11.dtd">
<svg version="1.1" id="Capa_1" xmlns="http://www.w3.org/2000/svg" xmlns:xlink="http://www.w3.org/1999/xlink" x="0px" y="0px"
	 viewBox="0 0 467.307 467.307" style="enable-background:new 0 0 467.307 467.307;" xml:space="preserve">
<path d="M452.964,217.792L417.3,195.234l-21.905-87.287C376.236,31.533,298.767-14.845,222.354,4.321L118.213,30.455
	C41.814,49.621-4.572,127.106,14.602,203.511l16.901,67.365v50.032c0,15.444,12.516,27.961,27.96,27.961h80.428l119.855,60.806
	l30.505,42.65c5.764,8.053,14.696,13.401,24.483,14.682c1.542,0.2,3.09,0.3,4.632,0.3c8.269,0,16.385-2.874,22.82-8.169
	l24.777-20.407c6.728-5.541,7.691-15.491,2.149-22.22c-5.532-6.734-15.49-7.691-22.219-2.149l-24.777,20.408
	c-0.909,0.746-2.112,1.085-3.283,0.933c-1.163-0.147-2.219-0.786-2.906-1.751l-30.989-43.327l-21.895-130.846
	c14.334-5.987,29.578-10.096,45.5-11.714l140.711-14.335c3.676-0.377,6.713-3.045,7.545-6.643
	C457.642,223.487,456.102,219.749,452.964,217.792z M182.147,334.911c12.223-23.944,30.011-44.027,51.598-58.948l15.567,93.02
	L182.147,334.911z"/>
<g>
</g>
<g>
</g>
<g>
</g>
<g>
</g>
<g>
</g>
<g>
</g>
<g>
</g>
<g>
</g>
<g>
</g>
<g>
</g>
<g>
</g>
<g>
</g>
<g>
</g>
<g>
</g>
<g>
</g>
</svg>
