<svg id="Capa_1" enable-background="new 0 0 512.324 512.324" height="512" viewBox="0 0 512.324 512.324" width="512" xmlns="http://www.w3.org/2000/svg"><g><path d="m228.649 122.327-6.135-4.58c-33.582-25.073-79.757-24.127-112.284 2.301l-8.817 7.165c-1.753 1.424-2.771 3.562-2.771 5.821v251.889c0 4.142 3.357 7.5 7.5 7.5h118.02c4.143 0 7.5-3.358 7.5-7.5v-256.586c0-2.366-1.117-4.594-3.013-6.01zm-115.006 156.729v-17.512h103.02v17.512zm103.019 15v17.512h-103.02v-17.512zm-103.019-47.512v-17.512h103.02v17.512zm0-32.512v-17.512h103.02v17.512zm0-32.511v-17.512h103.02v17.512zm0 145.046h103.02v17.511h-103.02zm6.046-194.877c27.188-22.09 65.782-22.88 93.852-1.923l3.121 2.33v16.912h-103.02v-12.405zm-6.046 245.733v-18.344h103.02v18.344z"/><path d="m491.641 29.279h-20.528c-11.405 0-20.684 9.279-20.684 20.684v43.571h-30.269c-43.79-34.038-104.871-34.744-149.495-1.429l-6.972 5.206c-2.886 2.154-5.411 4.705-7.531 7.541-2.12-2.836-4.645-5.386-7.531-7.541l-6.973-5.206c-44.623-33.314-105.705-32.609-149.495 1.429h-30.267v-43.571c0-11.405-9.278-20.684-20.684-20.684h-20.528c-11.406 0-20.684 9.279-20.684 20.684v412.398c0 11.405 9.278 20.684 20.684 20.684h20.528c11.405 0 20.684-9.279 20.684-20.684v-37.938h176.093c7.093 0 13.522-2.892 18.174-7.558 4.651 4.666 11.081 7.558 18.174 7.558h176.093v37.938c0 11.405 9.278 20.684 20.684 20.684h20.528c11.405 0 20.684-9.279 20.684-20.684v-412.398c-.002-11.405-9.28-20.684-20.685-20.684zm-253.653 380.144h-176.092v-221.818c0-4.142-3.357-7.5-7.5-7.5s-7.5 3.358-7.5 7.5v274.756c0 3.134-2.55 5.684-5.684 5.684h-20.528c-3.134 0-5.684-2.55-5.684-5.684v-412.398c0-3.134 2.55-5.684 5.684-5.684h20.528c3.134 0 5.684 2.55 5.684 5.684v105.651c0 4.142 3.357 7.5 7.5 7.5s7.5-3.358 7.5-7.5v-47.08h32.886c1.723 0 3.393-.593 4.729-1.679 38.58-31.346 93.343-32.468 133.174-2.73l6.974 5.206c5.638 4.209 9.004 10.923 9.004 17.959v271.46c-.001 5.885-4.789 10.673-10.675 10.673zm259.336 52.938c0 3.134-2.55 5.684-5.684 5.684h-20.528c-3.134 0-5.684-2.55-5.684-5.684v-94.951c0-4.142-3.357-7.5-7.5-7.5s-7.5 3.358-7.5 7.5v42.012h-176.092c-5.886 0-10.674-4.788-10.674-10.673v-271.458c0-7.037 3.366-13.75 9.005-17.959l6.973-5.206c39.83-29.738 94.594-28.616 133.174 2.73 1.337 1.086 3.007 1.679 4.729 1.679h32.886v226.885c0 4.142 3.357 7.5 7.5 7.5s7.5-3.358 7.5-7.5v-285.457c0-3.134 2.55-5.684 5.684-5.684h20.528c3.134 0 5.684 2.55 5.684 5.684v412.398z"/><path d="m410.911 127.213-8.817-7.165c-32.528-26.428-78.7-27.373-112.285-2.301l-6.134 4.58c-1.896 1.416-3.013 3.644-3.013 6.01v256.586c0 4.142 3.357 7.5 7.5 7.5h118.02c4.143 0 7.5-3.358 7.5-7.5v-251.889c0-2.258-1.018-4.396-2.771-5.821zm-47.419 69.308h35.189v17.512h-103.02v-17.512h35.84c4.143 0 7.5-3.358 7.5-7.5s-3.357-7.5-7.5-7.5h-35.84v-17.512h103.02v17.512h-35.189c-4.143 0-7.5 3.358-7.5 7.5s3.358 7.5 7.5 7.5zm-67.83 82.535v-17.512h103.02v17.512zm103.02 15v17.512h-103.02v-17.512zm-103.02-47.512v-17.512h103.02v17.512zm0 80.023h103.02v17.511h-103.02zm3.121-196.8c28.068-20.956 66.664-20.167 93.852 1.923l6.047 4.914v12.405h-103.02v-16.912zm-3.121 247.656v-18.344h103.02v18.344z"/></g></svg>