<?xml version="1.0" encoding="iso-8859-1"?>
<!-- Generator: Adobe Illustrator 19.0.0, SVG Export Plug-In . SVG Version: 6.00 Build 0)  -->
<svg version="1.1" id="Capa_1" xmlns="http://www.w3.org/2000/svg" xmlns:xlink="http://www.w3.org/1999/xlink" x="0px" y="0px"
	 viewBox="0 0 512 512" style="enable-background:new 0 0 512 512;" xml:space="preserve">
<g>
	<g>
		<path d="M142.875,238.67c-9.3,0-16.87-7.57-16.87-16.88V135c0-34.74-28.26-63-63-63s-63,28.26-63,63v118.67
			c0,60.65,49.35,110,110,110h36.06v-125H142.875z"/>
	</g>
</g>
<g>
	<g>
		<path d="M457.455,203.33c-30.08,0-54.54,24.47-54.54,54.55v71.5c0,6.21-5.05,11.26-11.26,11.26h-24.65V95.5
			c0-52.66-42.84-95.5-95.5-95.5c-52.66,0-95.5,42.84-95.5,95.5V512h191v-63.1h51.73c51.43,0,93.26-41.84,93.26-93.26v-97.76
			C511.995,227.8,487.525,203.33,457.455,203.33z"/>
	</g>
</g>
<g>
</g>
<g>
</g>
<g>
</g>
<g>
</g>
<g>
</g>
<g>
</g>
<g>
</g>
<g>
</g>
<g>
</g>
<g>
</g>
<g>
</g>
<g>
</g>
<g>
</g>
<g>
</g>
<g>
</g>
</svg>
